<mxfile host="app.diagrams.net" modified="2023-08-24T13:23:56.159Z" agent="Mozilla/5.0 (Windows NT 10.0; Win64; x64; rv:109.0) Gecko/20100101 Firefox/116.0" version="21.6.9" etag="G1UweDpX46t9z7p52Cg_" type="github">
  <diagram name="PÃ¡gina-1" id="xlmv7OoFxAXbk12nudV5">
    <mxGraphModel>
      <root>
        <mxCell id="0" />
        <mxCell id="1" parent="0" />
      </root>
    </mxGraphModel>
  </diagram>
</mxfile>
